<svg width="1500" height="1500" viewBox="0 0 1500 1500" fill="none" xmlns="http://www.w3.org/2000/svg">
<rect width="1500" height="1500" rx="15" fill="#8EAEBD"/>
<path d="M745.538 150L538.632 356.907L668.091 486.081L616.079 538.093L486.905 408.634L279.998 615.54L409.172 745L279.998 874.174L486.905 1081.37L616.365 951.907L668.091 1003.63L538.632 1133.09L745.538 1340L952.731 1133.09L823.271 1003.63L874.998 951.907L1004.46 1081.37L1211.36 874.174L1081.9 745L1211.36 615.54L1004.46 408.634L874.998 538.093L823.271 486.366L952.731 356.907L745.538 150ZM745.824 305.466L797.265 356.907L745.538 408.634L694.097 357.193L745.824 305.466ZM486.905 563.814L538.632 615.54L486.905 667.267L435.178 615.54L486.905 563.814ZM745.824 563.814L797.551 615.54L745.538 667.553L693.812 615.826L745.824 563.814ZM1004.17 563.814L1056.18 615.826L1004.46 667.553L952.445 615.54L1004.17 563.814ZM874.998 692.988L927.011 745L874.998 797.012L822.986 745L874.998 692.988ZM616.365 693.273L668.091 745L616.365 796.727L564.638 745L616.365 693.273ZM745.538 822.447L797.551 874.46L745.824 926.186L693.812 874.174L745.538 822.447ZM1004.46 822.447L1056.18 874.174L1004.17 926.186L952.445 874.46L1004.46 822.447ZM486.905 822.733L538.632 874.46L487.191 925.901L435.464 874.174L486.905 822.733ZM745.538 1081.37L797.265 1133.09L745.824 1184.53L694.097 1132.81L745.538 1081.37Z" fill="white" stroke="#6B6B6B" stroke-width="2.20467"/>
<path d="M321.033 615.596L429.752 724.718L466.732 687.738L394.59 615.596L487.142 523.043L548.776 584.677L579.694 615.596L616.473 652.374L647.391 683.292L688.615 724.516L725.191 687.94L683.967 646.716L653.049 615.798L616.271 579.019L585.352 548.101L487.142 449.486L321.033 615.596V615.596ZM579.694 356.934L688.615 465.855L725.393 429.076L653.251 356.934L745.803 264.382L838.355 356.934L776.923 418.366L745.803 449.486L709.025 486.265L678.107 517.183L636.681 558.609L673.459 595.388L714.885 553.961L745.803 523.043L782.582 486.265L813.702 455.145L911.912 356.934L745.803 190.825L579.694 356.934V356.934ZM321.033 874.257L486.94 1040.57L596.063 931.445L559.284 894.667L487.344 966.607L394.792 874.055L449.96 818.887L486.94 781.907L523.92 744.926L548.776 720.07L596.063 672.784L559.284 636.006L519.677 675.613L487.142 708.148L450.162 745.128L420.86 774.43L321.033 874.257V874.257ZM507.35 802.317L548.574 843.541L548.776 843.339L647.593 942.155L647.391 942.358L688.615 983.582L725.595 946.601L684.169 905.175L653.251 874.257L616.473 837.478L585.352 806.358L544.33 765.336L507.35 802.317V802.317ZM766.213 543.453L807.235 584.475L807.437 584.273L906.254 683.09L906.052 683.292L947.478 724.718L984.256 687.94L942.83 646.514L911.912 615.596L875.134 578.817L844.014 547.697L802.992 506.675L766.213 543.453V543.453ZM636.883 817.068L673.661 853.847L714.683 812.825L714.481 812.623L813.298 713.806L813.5 714.008L854.926 672.582L818.147 635.803L776.721 677.23L745.601 708.35L709.025 744.926L677.905 776.046L636.883 817.068V817.068ZM895.544 558.407L932.322 595.186L1004.46 523.043L1097.02 615.596L1035.58 677.028L1035.79 677.23L936.97 776.046L936.768 775.844L895.342 817.271L932.12 854.049L973.546 812.623L1004.46 781.705L1041.24 744.926L1072.36 713.806L1170.57 615.596L1004.46 449.486L895.544 558.407ZM766.011 801.913L807.437 843.339L838.355 874.257L875.134 911.035L906.254 942.155L1004.67 1040.57L1170.57 874.257L1061.65 765.336L1024.87 802.115L1097.02 874.257L1004.26 967.011L942.83 905.579L911.71 874.459L874.932 837.681L844.014 806.762L802.587 765.336L766.011 801.913V801.913ZM579.492 1133.12L745.601 1299.23L912.114 1133.12L802.992 1024L766.011 1060.98L838.153 1133.12L746.005 1225.27L653.453 1132.72L714.683 1071.49L745.601 1040.57L782.582 1003.59L813.5 972.669L854.724 931.445L817.945 894.667L776.721 935.891L776.923 936.093L678.309 1034.71L678.107 1034.51L579.492 1133.12V1133.12Z" fill="white" stroke="#6B6B6B" stroke-width="1.10234"/>
<path d="M745.836 563.803L823.284 486.356L745.836 563.803ZM745.551 408.623L668.104 486.07Z" fill="#C3C7C8"/>
<path d="M745.551 408.623L668.104 486.07M745.836 563.803L823.284 486.356L745.836 563.803Z" stroke="#6B6B6B" stroke-width="2.20467"/>
<path d="M1004.32 822.472L1081.77 745.025L1004.32 822.472ZM1004.32 667.578L926.873 745.025Z" fill="#C3C7C8"/>
<path d="M1004.32 667.578L926.873 745.025M1004.32 822.472L1081.77 745.025L1004.32 822.472Z" stroke="#6B6B6B" stroke-width="2.20467"/>
<path d="M745.551 822.472L822.998 745.025L745.551 822.472ZM745.551 667.578L668.104 745.025Z" fill="#C3C7C8"/>
<path d="M745.551 667.578L668.104 745.025M745.551 822.472L822.998 745.025L745.551 822.472Z" stroke="#6B6B6B" stroke-width="2.20467"/>
<path d="M875.121 692.995L797.674 615.548L875.121 692.995ZM875.121 538.101L952.568 615.548Z" fill="#C3C7C8"/>
<path d="M875.121 538.101L952.568 615.548M875.121 692.995L797.674 615.548L875.121 692.995Z" stroke="#6B6B6B" stroke-width="2.20467"/>
<path d="M875.121 951.95L797.674 874.503L875.121 951.95ZM875.121 797.056L952.568 874.503Z" fill="#C3C7C8"/>
<path d="M875.121 797.056L952.568 874.503M875.121 951.95L797.674 874.503L875.121 951.95Z" stroke="#6B6B6B" stroke-width="2.20467"/>
<path d="M745.551 1081.38L823.284 1003.65L745.551 1081.38ZM745.836 926.201L668.104 1003.65Z" fill="#C3C7C8"/>
<path d="M745.836 926.201L668.104 1003.65M745.551 1081.38L823.284 1003.65L745.551 1081.38Z" stroke="#6B6B6B" stroke-width="2.20467"/>
<path d="M487.067 822.712L564.8 744.979L487.067 822.712ZM487.067 667.246L409.334 744.979Z" fill="#C3C7C8"/>
<path d="M487.067 667.246L409.334 744.979M487.067 822.712L564.8 744.979L487.067 822.712Z" stroke="#6B6B6B" stroke-width="2.20467"/>
<path d="M616.266 951.904L538.533 874.457L616.266 951.904ZM616.266 796.724L693.713 874.171Z" fill="#C3C7C8"/>
<path d="M616.266 796.724L693.713 874.171M616.266 951.904L538.533 874.457L616.266 951.904Z" stroke="#6B6B6B" stroke-width="2.20467"/>
<path d="M616.266 693.281L538.533 615.548L616.266 693.281ZM615.98 538.101L693.713 615.834Z" fill="#C3C7C8"/>
<path d="M615.98 538.101L693.713 615.834M616.266 693.281L538.533 615.548L616.266 693.281Z" stroke="#6B6B6B" stroke-width="2.20467"/>
</svg>
