<svg width="118" height="150" viewBox="0 0 118 150" fill="none" xmlns="http://www.w3.org/2000/svg">
<path d="M59.0777 2L33.6924 27.3852L49.5757 43.2334L43.1944 49.6148L27.3461 33.7315L1.96094 59.1167L17.8092 75L1.96094 90.8482L27.3461 116.268L43.2294 100.385L49.5757 106.732L33.6924 122.615L59.0777 148L84.4979 122.615L68.6146 106.732L74.9609 100.385L90.8442 116.268L116.229 90.8482L100.346 75L116.229 59.1167L90.8442 33.7315L74.9609 49.6148L68.6146 43.2685L84.4979 27.3852L59.0777 2ZM59.1127 21.074L65.424 27.3852L59.0777 33.7315L52.7664 27.4203L59.1127 21.074ZM27.3461 52.7704L33.6924 59.1167L27.3461 65.463L20.9998 59.1167L27.3461 52.7704ZM59.1127 52.7704L65.459 59.1167L59.0777 65.4981L52.7314 59.1518L59.1127 52.7704ZM90.8092 52.7704L97.1905 59.1518L90.8442 65.4981L84.4629 59.1167L90.8092 52.7704ZM74.9609 68.6186L81.3423 75L74.9609 81.3814L68.5796 75L74.9609 68.6186ZM43.2294 68.6537L49.5757 75L43.2294 81.3463L36.8831 75L43.2294 68.6537ZM59.0777 84.5019L65.459 90.8833L59.1127 97.2296L52.7314 90.8482L59.0777 84.5019ZM90.8442 84.5019L97.1905 90.8482L90.8092 97.2296L84.4629 90.8833L90.8442 84.5019ZM27.3461 84.537L33.6924 90.8833L27.3812 97.1945L21.0349 90.8482L27.3461 84.537ZM59.0777 116.268L65.424 122.615L59.1127 128.926L52.7664 122.58L59.0777 116.268Z" fill="white" stroke="#9D9D9D" stroke-width="2.20467"/>
<path d="M7.01367 59.1205L20.3522 72.5087L24.8893 67.9716L16.0383 59.1205L27.3934 47.7654L34.9552 55.3272L38.7485 59.1205L43.2608 63.6328L47.0542 67.4262L52.1119 72.4839L56.5994 67.9964L51.5417 62.9386L47.7484 59.1453L43.2361 54.633L39.4427 50.8397L27.3934 38.7408L7.01367 59.1205ZM38.7485 27.3856L52.1119 40.749L56.6242 36.2367L47.7732 27.3856L59.1283 16.0305L70.4834 27.3856L62.9464 34.9227L59.1283 38.7408L54.616 43.2531L50.8227 47.0464L45.7401 52.1289L50.2524 56.6412L55.335 51.5587L59.1283 47.7654L63.6406 43.2531L67.4587 39.435L79.508 27.3856L59.1283 7.00586L38.7485 27.3856ZM7.01367 90.8555L27.3686 111.26L40.7568 97.8718L36.2445 93.3595L27.4182 102.186L16.0631 90.8307L22.8315 84.0622L27.3686 79.5251L31.9057 74.988L34.9552 71.9385L40.7568 66.1369L36.2445 61.6246L31.3851 66.484L27.3934 70.4757L22.8563 75.0128L19.2613 78.6078L7.01367 90.8555ZM29.8727 82.0292L34.9304 87.0869L34.9552 87.0621L47.079 99.1859L47.0542 99.2107L52.1119 104.268L56.649 99.7313L51.5665 94.6488L47.7732 90.8555L43.2608 86.3431L39.4427 82.525L34.4098 77.4921L29.8727 82.0292ZM61.6324 50.2695L66.6653 55.3024L66.6901 55.2776L78.8138 67.4014L78.789 67.4262L83.8716 72.5087L88.3839 67.9964L83.3013 62.9139L79.508 59.1205L74.9957 54.6082L71.1776 50.7901L66.1447 45.7572L61.6324 50.2695ZM45.7649 83.8391L50.2772 88.3514L55.3102 83.3184L55.2854 83.2936L67.4091 71.1699L67.4339 71.1947L72.5164 66.1121L68.0041 61.5998L62.9216 66.6824L59.1035 70.5005L54.616 74.988L50.7979 78.8061L45.7649 83.8391ZM77.4998 52.1041L82.0121 56.6165L90.8632 47.7654L102.218 59.1205L94.6813 66.6576L94.7061 66.6824L82.5823 78.8061L82.5575 78.7813L77.475 83.8639L81.9873 88.3762L87.0698 83.2936L90.8632 79.5003L95.3755 74.988L99.1936 71.1699L111.243 59.1205L90.8632 38.7408L77.4998 52.1041ZM61.6076 81.9796L66.6901 87.0621L70.4834 90.8555L74.9957 95.3678L78.8138 99.1859L90.8879 111.26L111.243 90.8555L97.8795 77.4921L93.3672 82.0044L102.218 90.8555L90.8384 102.235L83.3013 94.6984L79.4832 90.8802L74.9709 86.3679L71.1776 82.5746L66.0951 77.4921L61.6076 81.9796ZM38.7238 122.615L59.1035 142.995L79.5328 122.615L66.1447 109.227L61.6076 113.764L70.4586 122.615L59.1531 133.921L47.7979 122.566L55.3102 115.053L59.1035 111.26L63.6406 106.723L67.4339 102.93L72.4916 97.8718L67.9793 93.3595L62.9216 98.4173L62.9464 98.4421L50.8475 110.541L50.8227 110.516L38.7238 122.615Z" fill="white" stroke="#9D9D9D" stroke-width="1.10234"/>
<path d="M59.1151 52.7811L68.617 43.2792L59.1151 52.7811ZM59.08 33.7422L49.5781 43.2441L59.08 33.7422Z" fill="#C3C7C8"/>
<path d="M59.08 33.7422L49.5781 43.2441M59.1151 52.7811L68.617 43.2792L59.1151 52.7811Z" stroke="#9D9D9D" stroke-width="2.20467"/>
<path d="M90.8105 84.4951L100.312 74.9931L90.8105 84.4951ZM90.8105 65.4912L81.3086 74.9931L90.8105 65.4912Z" fill="#C3C7C8"/>
<path d="M90.8105 65.4912L81.3086 74.9931M90.8105 84.4951L100.312 74.9931L90.8105 84.4951Z" stroke="#9D9D9D" stroke-width="2.20467"/>
<path d="M59.08 84.4951L68.582 74.9931L59.08 84.4951ZM59.08 65.4912L49.5781 74.9931L59.08 65.4912Z" fill="#C3C7C8"/>
<path d="M59.08 65.4912L49.5781 74.9931M59.08 84.4951L68.582 74.9931L59.08 84.4951Z" stroke="#9D9D9D" stroke-width="2.20467"/>
<path d="M74.9902 68.62L65.4883 59.1181L74.9902 68.62ZM74.9902 49.6162L84.4921 59.1181L74.9902 49.6162Z" fill="#C3C7C8"/>
<path d="M74.9902 49.6162L84.4921 59.1181M74.9902 68.62L65.4883 59.1181L74.9902 68.62Z" stroke="#9D9D9D" stroke-width="2.20467"/>
<path d="M74.9902 100.395L65.4883 90.8935L74.9902 100.395ZM74.9902 81.3916L84.4921 90.8935L74.9902 81.3916Z" fill="#C3C7C8"/>
<path d="M74.9902 81.3916L84.4921 90.8935M74.9902 100.395L65.4883 90.8935L74.9902 100.395Z" stroke="#9D9D9D" stroke-width="2.20467"/>
<path d="M59.08 116.272L68.617 106.735L59.08 116.272ZM59.1151 97.2334L49.5781 106.735L59.1151 97.2334Z" fill="#C3C7C8"/>
<path d="M59.1151 97.2334L49.5781 106.735M59.08 116.272L68.617 106.735L59.08 116.272Z" stroke="#9D9D9D" stroke-width="2.20467"/>
<path d="M27.3846 84.532L36.9216 74.995L27.3846 84.532ZM27.3846 65.458L17.8477 74.995L27.3846 65.458Z" fill="#C3C7C8"/>
<path d="M27.3846 65.458L17.8477 74.995M27.3846 84.532L36.9216 74.995L27.3846 84.532Z" stroke="#9D9D9D" stroke-width="2.20467"/>
<path d="M43.205 100.398L33.668 90.8964L43.205 100.398ZM43.205 81.3594L52.7069 90.8613L43.205 81.3594Z" fill="#C3C7C8"/>
<path d="M43.205 81.3594L52.7069 90.8613M43.205 100.398L33.668 90.8964L43.205 100.398Z" stroke="#9D9D9D" stroke-width="2.20467"/>
<path d="M43.205 68.6551L33.668 59.1181L43.205 68.6551ZM43.1699 49.6162L52.7069 59.1532L43.1699 49.6162Z" fill="#C3C7C8"/>
<path d="M43.1699 49.6162L52.7069 59.1532M43.205 68.6551L33.668 59.1181L43.205 68.6551Z" stroke="#9D9D9D" stroke-width="2.20467"/>
</svg>